<?xml version="1.0" encoding="utf-8"?>
<!-- Generator: Adobe Illustrator 20.0.0, SVG Export Plug-In . SVG Version: 6.00 Build 0)  -->
<svg version="1.1" id="Calque_1" xmlns="http://www.w3.org/2000/svg" xmlns:xlink="http://www.w3.org/1999/xlink" x="0px" y="0px"
	 viewBox="0 0 223 50" style="enable-background:new 0 0 223 50;" xml:space="preserve">
<path d="M212.6,5.4V4.6H202v0.7h1.6v14.3l-9.8-15h-4.5v0.7h1.6v19.2h-2.7l-7.1-20.8l-7.3,20.8h-2.7V5.4h1.6V4.6h-4.3l-5.3,15.7
	l-5.7-15.7h-4.2v0.7h1.6v19.2h-3.2c-0.9,0-1.7-0.8-1.7-2.2v-3c0-2.3-0.7-4.3-3.1-4.9c2-0.6,3.4-2.5,3.4-4.6c0-2.9-2.2-5.2-6.4-5.2
	h-6.3v0.7h1.6v19.2h-3.2l-7.1-20.8l-7.3,20.8H120v0.7h4v-0.7h-1.8l2-5.8h6.6l1.9,5.8h-2.5v0.7h13.8v-0.7h-2.5v-9.8h1.7
	c2.4,0,3.7,1,3.7,3.4v1.8c0,4.2,2.7,5.3,4.3,5.3h5.9v-0.7h-1.8v-17l6.6,18l6.3-18.4v17.5h-1.6v0.7h9.6v-0.7h-1.8l2-5.8h6.6l1.9,5.8
	h-2.5v0.7h10.6v-0.7h-1.6V6.4l12.7,19.5V5.4h3.8v19.2h-1.6v0.7h5.9v-0.7h-1.6V5.4H212.6z M124.6,18l3.2-9.1l3.1,9.1H124.6z
	 M143.4,14h-1.7V5.4h1.4c2.5,0,4.1,1.6,4.1,4.5C147.3,11.5,146,14,143.4,14z M177,18l3.2-9.1l3,9.1H177z M101.7,4.2
	c-5.4,0-8.9,6.1-8.9,10.8c0,5.3,3.8,10.8,8.9,10.8c5.2,0,9-5.3,9-10.8C110.6,10.2,106.8,4.2,101.7,4.2z M101.7,25
	c-5.2,0-5.5-6.8-5.5-10.1c0-3.2,0.4-10.1,5.5-10.1c5.1,0,5.5,6.9,5.5,10.1C107.2,18.2,106.8,25,101.7,25z M86,5.4h1.6v19.2H86v0.7
	h5.9v-0.7h-1.6V5.4h1.6V4.6H86V5.4z M67.7,24.7c-0.9,0-1.7-0.8-1.7-2.3v-3.2c0-2.3-0.7-4.3-3.1-4.9c2-0.6,3.4-2.5,3.4-4.6
	c0-2.9-2.2-5.2-6.4-5.2h-6.4v0.7h1.6v19.2h-1.6v0.7h6.8v-0.7h-2.5v-9.7h1.7c2.4,0,3.6,1.1,3.6,3.4v1.9c0,4.2,2.7,5.3,4.3,5.3
	c1,0,1.4-0.3,1.9-0.7l-0.4-0.6C68.4,24.7,68,24.7,67.7,24.7z M59.5,14h-1.7V5.4h1.4c2.4,0,4.1,1.6,4.1,4.5
	C63.3,11.5,62.1,14,59.5,14z M43.9,4.2c-5.4,0-9,6.1-9,10.8c0,5.3,3.8,10.8,9,10.8s9-5.3,9-10.8C52.8,10.2,49,4.2,43.9,4.2z
	 M43.9,25c-5.2,0-5.5-6.8-5.5-10.1c0-3.2,0.4-10.1,5.5-10.1s5.5,6.9,5.5,10.1C49.3,18.2,49,25,43.9,25z M28.2,5.4h1.6v19.2h-1.6v0.7
	h5.9v-0.7h-1.6V5.4h1.6V4.6h-5.9V5.4z M21.5,17.2h1.9v3.7c0,1.9-1.5,4.1-4,4.1c-4.9,0-5.4-6.2-5.4-10.1c0-3.6,0.4-10.1,5.7-10.1
	c2,0,4.3,1.9,4.8,5.9h0.6V4.2h-0.6c-0.1,0.7-0.5,1-1.2,1S21.7,4,19.7,4c-6.1,0-9.2,6.5-9.2,10.8c0,4.6,3.5,10.8,8.8,10.8
	c2.9,0,3.2-1.8,4.9-1.8c0.6,0,0.9,0.5,1,1.2h0.7v-8.1h1.6v-0.7h-6.1v1H21.5z M79.3,17.2h1.9v3.7c0,1.9-1.5,4.1-4,4.1
	c-4.9,0-5.4-6.2-5.4-10.1c0-3.6,0.4-10.1,5.7-10.1c2,0,4.3,1.9,4.8,5.9h0.6V4.2h-0.6c-0.1,0.7-0.5,1-1.2,1S79.4,4,77.5,4
	c-6.1,0-9.2,6.5-9.2,10.8c0,4.6,3.5,10.8,8.8,10.8c2.9,0,3.2-1.8,4.9-1.8c0.6,0,0.9,0.5,1,1.2h0.7v-8.1h1.6v-0.7h-6.2v1H79.3z
	 M41.5,32.8c-0.6,0-0.9-0.3-0.9-0.7c0-0.5,0.3-0.4,0.3-0.9c0-0.4-0.2-0.5-0.5-0.5c-0.5,0-0.9,0.5-0.9,2.1v3.1c0,0.1,0,0.1,0.1,0.1
	h1.5c0,0,0,0.4,0,0.4h-1.5c-0.1,0-0.1,0-0.1,0.1V43c0,0.1,0,0.1,0.1,0.1h1c0,0,0,0.4,0,0.4h-4.2c0,0,0-0.4,0-0.4h1
	c0.1,0,0.1,0,0.1-0.1v-6.7c0-0.1,0-0.1-0.1-0.1h-1.3c-0.1,0-0.1-0.4,0-0.4h1.3c0.1,0,0.1,0,0.1-0.1v-0.3c0-4,1.4-5.3,3.2-5.3
	c0.8,0,1.7,0.8,1.7,1.7C42.4,32.3,42,32.8,41.5,32.8z M47.7,38.5c-0.6,0-1-0.3-1-0.7c0-0.5,0.3-0.5,0.3-0.9c0-0.4-0.2-0.6-0.5-0.6
	c-0.6,0-1,0.4-1.4,2V43c0,0.1,0,0.1,0.1,0.1h1c0.1,0,0.1,0.4,0,0.4h-4.2c0,0,0-0.4,0-0.4h1c0.1,0,0.1,0,0.1-0.1v-6.7
	c0-0.1,0-0.1-0.1-0.1h-1c0,0,0-0.4,0-0.4h3c0,0,0.1,0,0.1,0.1v1.2c0.4-1.2,1-1.4,1.9-1.4c1.1,0,1.6,0.8,1.6,1.6
	C48.7,38.2,48.3,38.5,47.7,38.5z M55.6,43.7c-0.8,0-1.5-0.6-1.7-1.3c-0.3,0.7-0.9,1.3-1.9,1.3c-1.2,0-2.6-0.5-2.6-1.9
	c0-1.9,1.8-2.2,2.5-2.3c1-0.1,1.9-0.2,1.9-0.5v-1.4c0-1.4-0.5-1.5-1.2-1.5c-0.5,0-0.9,0-0.9,0.5c0,0.3,0.2,0.4,0.2,0.7
	c0,0.4-0.3,0.7-0.9,0.7c-0.6,0-0.8-0.4-0.8-0.9c0-0.7,1-1.5,2.4-1.5c1.9,0,3.1,1,3.1,3.3v3.5c0,0.5,0.2,0.6,0.4,0.6
	c0.3,0,0.5-0.2,0.6-0.4c0,0,0.3,0.2,0.3,0.3C56.9,43.3,56.3,43.7,55.6,43.7z M53.9,39.6c-0.4,0.3-1.1,0.3-1.6,0.4
	c-0.6,0.1-1,0.2-1,1.9c0,0.8,0.2,1.4,1.1,1.4c1,0,1.5-1,1.5-2.1V39.6z M65.8,37.5c-0.4,0-0.6-0.2-0.6-0.4c0-0.2,0.1-0.3,0.1-0.5
	c0-0.2-0.1-0.3-0.3-0.3c-0.3,0-0.6-0.1-1,0.7c0.4,0.5,0.5,0.9,0.5,1.6c0,1.6-1.4,2.9-3,2.9c-1,0-1.8-0.5-2.1-0.8
	c-0.3,0.2-0.5,0.5-0.5,1.1c0,0.9,0.4,1.1,1.4,1.1h2.3c2.2,0,3.6,0.9,3.6,2.9c0,2.2-2.5,3.4-4.5,3.4c-2.5,0-4.2-1.1-4.2-2.5
	c0-1,0.8-2,1.9-2.3c-1-0.2-1.7-0.9-1.7-1.9c0-1.1,0.6-1.7,1.5-2.2c-0.4-0.5-0.7-1.1-0.7-1.8c0-1.6,1.4-2.9,3.1-2.9
	c1,0,1.8,0.4,2.4,1.1c0.3-0.6,0.9-1.1,1.6-1.1s0.9,0.6,0.9,1C66.4,37.2,66.1,37.5,65.8,37.5z M62.8,44.6h-2.6c0.1,0-0.4,0-0.3,0
	c-0.8,0.5-1,0.9-1,2c0,1.9,1,2.2,2.9,2.2c1.8,0,3.4-0.7,3.4-2.2C65,45.5,64.3,44.6,62.8,44.6z M62.4,36.4c-0.2-0.2-0.5-0.2-0.9-0.2
	c-0.3,0-0.6,0-0.8,0.2c-0.3,0.3-0.5,1-0.5,2.2c0,1.4,0.2,1.9,0.5,2.2c0.2,0.2,0.5,0.3,0.8,0.3c0.3,0,0.6,0,0.9-0.3
	c0.3-0.3,0.5-0.8,0.5-2.2C62.9,37.4,62.7,36.7,62.4,36.4z M72.2,38.5c-0.6,0-1-0.3-1-0.7c0-0.5,0.3-0.5,0.3-0.9
	c0-0.4-0.2-0.6-0.5-0.6c-0.6,0-1,0.4-1.4,2V43c0,0.1,0,0.1,0.1,0.1h1c0.1,0,0.1,0.4,0,0.4h-4.2c0,0,0-0.4,0-0.4h1
	c0.1,0,0.1,0,0.1-0.1v-6.7c0-0.1,0-0.1-0.1-0.1h-1c0,0,0-0.4,0-0.4h3c0,0,0.1,0,0.1,0.1v1.2c0.4-1.2,1-1.4,1.9-1.4
	c1.1,0,1.6,0.8,1.6,1.6C73.2,38.2,72.8,38.5,72.2,38.5z M80.1,43.7c-0.8,0-1.5-0.6-1.7-1.3c-0.3,0.7-0.9,1.3-1.9,1.3
	c-1.2,0-2.6-0.5-2.6-1.9c0-1.9,1.8-2.2,2.5-2.3c1-0.1,1.9-0.2,1.9-0.5v-1.4c0-1.4-0.5-1.5-1.2-1.5c-0.5,0-0.9,0-0.9,0.5
	c0,0.3,0.2,0.4,0.2,0.7c0,0.4-0.3,0.7-0.9,0.7c-0.6,0-0.8-0.4-0.8-0.9c0-0.7,1-1.5,2.4-1.5c1.9,0,3.1,1,3.1,3.3v3.5
	c0,0.5,0.2,0.6,0.4,0.6c0.3,0,0.5-0.2,0.6-0.4c0,0,0.3,0.2,0.3,0.3C81.4,43.3,80.8,43.7,80.1,43.7z M78.4,39.6
	c-0.4,0.3-1.1,0.3-1.6,0.4c-0.6,0.1-1,0.2-1,1.9c0,0.8,0.2,1.4,1.1,1.4c1,0,1.5-1,1.5-2.1V39.6z M87.4,43.5c-0.1,0-0.1-0.4,0-0.4h1
	c0.1,0,0.1,0,0.1-0.1V38c0-1.3-0.5-1.8-1.2-1.8c-1.1,0-1.7,0.5-2.1,1.9v5c0,0.1,0.1,0.1,0.1,0.1h1c0,0,0,0.4,0,0.4h-4.2
	c0,0,0-0.4,0-0.4h1c0.1,0,0.1,0,0.1-0.1v-6.7c0-0.1-0.1-0.1-0.1-0.1h-1c0,0,0-0.4,0-0.4h3c0.1,0,0.1,0,0.1,0.1v1.2
	c0.3-1,1.3-1.4,2.1-1.4c1.9,0,3.1,1.1,3.1,3V43c0,0.1,0,0.1,0.1,0.1h1c0.1,0,0.1,0.4,0,0.4H87.4z M96.5,43.7c-2.1,0-3.9-1.8-3.9-4
	c0-2.2,1.8-4,3.9-4c1.7,0,2.9,1.3,2.9,2.2c0,0.6-0.4,0.8-0.8,0.8c-0.5,0-0.8-0.3-0.8-0.7c0-0.5,0.2-0.4,0.2-1c0-0.7-0.5-0.9-1.4-0.9
	c-0.5,0-0.9,0.1-1.2,0.4c-0.5,0.5-0.7,1.2-0.7,3.2s0.2,2.7,0.7,3.2c0.3,0.3,0.7,0.4,1.2,0.4c1.3,0,2.4-0.6,3-1.5
	c0,0,0.2,0.2,0.2,0.2C99,43,97.8,43.7,96.5,43.7z M108.2,39.3h-5.3c0,0.1,0,0.3,0,0.4c0,2,0.2,2.7,0.7,3.2c0.3,0.3,0.7,0.4,1.2,0.4
	c1.3,0,2.4-0.6,3-1.5c0,0,0.3,0.2,0.2,0.2c-0.7,1-1.9,1.7-3.2,1.7c-2.2,0-3.9-1.8-3.9-4c0-2.2,1.7-4,3.9-4
	C107.2,35.7,108.2,38,108.2,39.3C108.2,39.3,108.2,39.3,108.2,39.3z M105.8,36.5c-0.3-0.3-0.6-0.4-1-0.4c-0.5,0-0.9,0.1-1.2,0.4
	c-0.5,0.4-0.7,0.9-0.7,2.4h3.5C106.4,37.4,106.3,36.9,105.8,36.5z M112.7,43.7c-1.1,0-1.3-0.5-1.8-0.5c-0.3,0-0.6,0.2-0.7,0.3
	c0,0.1-0.4,0-0.4,0l0.1-2.8c0,0,0.4,0,0.4,0c0,1.4,1,2.5,2.4,2.5c1,0,1.7-0.4,1.7-1.5c0-0.9-0.7-1.1-2.2-1.5
	c-1.4-0.3-2.2-0.9-2.2-2.1c0-1.6,1.1-2.4,2.3-2.4c1,0,0.9,0.3,1.5,0.3c0.2,0,0.4-0.3,0.4-0.3c0,0,0.4-0.1,0.4,0V38c0,0-0.4,0-0.4,0
	c0-1-1-1.8-1.9-1.8c-0.9,0-1.4,0.4-1.4,1.2c0,0.9,0.7,1,2.1,1.4c1.3,0.3,2.3,1,2.3,2.3C115.5,42.5,114.5,43.7,112.7,43.7z
	 M131.3,36.8c-0.9,0-1.4,0.3-1.4,1.4c-0.1,1.4-0.6,2.6-1.1,3.5c0.1,0.2,0.2,0.3,0.3,0.5c0.4,0.6,0.9,0.8,1.4,0.8
	c0.1,0,0.2,0,0.3-0.1c0.4-0.1,0.5-0.3,0.7-0.7c0,0,0.3,0.2,0.3,0.2c-0.4,0.9-1.6,1.5-2.7,1.5c-0.7,0-1.4-0.3-2-0.9
	c-1,0.6-2,0.9-3.1,0.9c-2.4,0-4.1-1.5-4.1-3.7c0-1.9,1-3.3,3-4.5c-0.2-0.6-0.3-1.2-0.3-1.7c0-2.1,1.1-3.4,2.6-3.4
	c1.3,0,1.8,0.6,1.8,1.6c0,0.9-0.5,2-1.8,2.8c0.7,2.2,2.1,4.4,3.5,6.5c0.5-0.9,0.8-2,0.9-3.2c0.1-1-0.4-1.4-1.4-1.4h-0.7
	c0,0,0-0.4,0-0.4h4.6c0,0,0,0.4,0,0.4H131.3z M125.8,41.5c-1.1-1.7-2.3-3.7-3-5.6c-0.8,0.6-1.3,1.5-1.3,2.6c0,2.2,1.3,4.2,4,4.2
	c0.5,0,0.6,0,1.1-0.2C126.3,42.3,126.2,42.1,125.8,41.5z M125.5,31c-0.7,0-1,0.3-1,1.4c0,0.6,0.1,1.3,0.4,2.1
	c1.2-0.6,1.6-1.5,1.6-2.3C126.4,31.4,126.1,31,125.5,31z M140.7,43.7c-0.7,0-1.6-0.5-2.1-0.9v0.7c0,0,0,0.1-0.1,0.1h-3
	c0,0,0-0.4,0-0.4h1.1c0.1,0,0.1,0,0.1-0.1V30.8c0-0.1-0.1-0.1-0.1-0.1h-1.1c0,0,0-0.4,0-0.4h3c0.1,0,0.1,0,0.1,0.1v6.1
	c0.4-0.5,1-0.7,1.7-0.7c2.1,0,3.9,2.1,3.9,4.1C144.3,41.7,142.9,43.7,140.7,43.7z M141.6,36.5c-0.3-0.3-0.7-0.4-1.2-0.4
	c-0.7,0-1.6,0.4-1.7,1.1V42c0.4,0.9,1.3,1.3,2.1,1.3c0.5,0,0.6-0.1,0.9-0.4c0.5-0.5,0.7-1.5,0.7-3.2C142.3,38.1,142.1,37,141.6,36.5
	z M153.1,39.3h-5.3c0,0.1,0,0.3,0,0.4c0,2,0.2,2.7,0.7,3.2c0.3,0.3,0.7,0.4,1.2,0.4c1.3,0,2.4-0.6,3-1.5c0,0,0.3,0.2,0.2,0.2
	c-0.7,1-1.9,1.7-3.2,1.7c-2.2,0-3.9-1.8-3.9-4c0-2.2,1.7-4,3.9-4C152.1,35.7,153.2,38,153.1,39.3C153.2,39.3,153.2,39.3,153.1,39.3z
	 M150.8,36.5c-0.3-0.3-0.6-0.4-1-0.4c-0.5,0-0.9,0.1-1.2,0.4c-0.5,0.4-0.7,0.9-0.7,2.4h3.5C151.4,37.4,151.2,36.9,150.8,36.5z
	 M160.7,43.7c-0.8,0-1.5-0.6-1.7-1.3c-0.3,0.7-0.9,1.3-1.9,1.3c-1.2,0-2.6-0.5-2.6-1.9c0-1.9,1.8-2.2,2.5-2.3c1-0.1,1.9-0.2,1.9-0.5
	v-1.4c0-1.4-0.5-1.5-1.2-1.5c-0.5,0-0.9,0-0.9,0.5c0,0.3,0.2,0.4,0.2,0.7c0,0.4-0.3,0.7-0.9,0.7c-0.6,0-0.8-0.4-0.8-0.9
	c0-0.7,1-1.5,2.4-1.5c1.9,0,3.1,1,3.1,3.3v3.5c0,0.5,0.2,0.6,0.4,0.6c0.3,0,0.5-0.2,0.6-0.4c0,0,0.3,0.2,0.3,0.3
	C161.9,43.3,161.4,43.7,160.7,43.7z M159,39.6c-0.4,0.3-1.1,0.3-1.6,0.4c-0.6,0.1-1,0.2-1,1.9c0,0.8,0.2,1.4,1.1,1.4
	c1,0,1.5-1,1.5-2.1V39.6z M168.9,43.5C168.9,43.5,168.8,43.5,168.9,43.5l-0.1-1.2c-0.3,1-1.3,1.4-2.1,1.4c-1.9,0-3-1-3-2.9v-4.4
	c0-0.1,0-0.1-0.1-0.1h-1c0,0,0-0.4,0-0.4h3c0,0,0.1,0,0.1,0.1v5.5c0,1.3,0.6,1.9,1.2,1.9c1.1,0,1.7-0.5,2.1-1.9v-5
	c0-0.1,0-0.1-0.1-0.1h-1c-0.1,0-0.1-0.4,0-0.4h3c0,0,0.1,0,0.1,0.1V43c0,0.1,0,0.1,0.1,0.1h1c0,0,0,0.4,0,0.4H168.9z M175.7,43.7
	c-1.2,0-1.7-0.6-1.7-1.8v-5.6c0-0.1-0.1-0.1-0.1-0.1h-1.3c0,0,0-0.4,0-0.4h1.3c0.1,0,0.1,0,0.1-0.1v-1.6c0.8-0.1,1.3-0.9,1.5-1.5
	c0,0,0.4,0,0.4,0v3.1c0,0.1,0.1,0.1,0.1,0.1h1.5c0,0,0,0.4,0,0.4H176c-0.1,0-0.1,0-0.1,0.1v6.2c0,0.3,0.2,0.5,0.6,0.5
	c0.5,0,0.8-0.5,1.1-1.2c0,0,0.3,0.2,0.3,0.2C177.5,43.1,176.8,43.7,175.7,43.7z M185.8,36.3c-0.2,0-0.2,0.1-0.5,0.8l-4.1,10.7
	c-0.4,1.1-1.1,1.5-1.8,1.5c-0.8,0-1.4-0.7-1.4-1.5c0-0.6,0.4-1.1,1-1.1c0.5,0,0.8,0.3,0.8,0.7c0,0.4-0.4,0.6-0.4,1
	c0,0.2,0,0.4,0.3,0.4c0.3,0,0.7,0,1.1-1l1.6-4.1l-3.5-7.4c0,0,0-0.1-0.1-0.1h-1c-0.1,0-0.1-0.4,0-0.4h4.5c0.1,0,0.1,0.4,0,0.4H181
	c-0.1,0-0.1,0-0.1,0.1l2.2,5.2l1.7-4.5c0.3-0.7,0.3-0.8,0.1-0.8h-1c-0.1,0-0.1-0.4,0-0.4h2.9c0.1,0,0.1,0.4,0,0.4H185.8z"/>
</svg>
